<svg width="40" height="40" viewBox="0 0 40 40" fill="none" xmlns="http://www.w3.org/2000/svg">
<g id="car">
<g id="vector">
<path d="M7.5 31.25V33.75C7.5 34.6705 8.24619 35.4167 9.16667 35.4167H10C10.9205 35.4167 11.6667 34.6705 11.6667 33.75V31.25H7.5Z" fill="#004A74"/>
<path d="M32.5 31.25V33.75C32.5 34.6705 31.7538 35.4167 30.8333 35.4167H30C29.0795 35.4167 28.3333 34.6705 28.3333 33.75V31.25H32.5Z" fill="#004A74"/>
</g>
<path id="vector_2" fill-rule="evenodd" clip-rule="evenodd" d="M7.91683 18.75C6.07588 18.75 4.5835 20.2424 4.5835 22.0833V27.9167C4.5835 29.7576 6.07588 31.25 7.91683 31.25H32.0835C33.9244 31.25 35.4168 29.7576 35.4168 27.9167V22.0833C35.4168 20.2424 33.9244 18.75 32.0835 18.75H7.91683ZM11.6668 26.6667C12.5873 26.6667 13.3335 25.9205 13.3335 25C13.3335 24.0795 12.5873 23.3333 11.6668 23.3333C10.7464 23.3333 10.0002 24.0795 10.0002 25C10.0002 25.9205 10.7464 26.6667 11.6668 26.6667ZM28.3335 26.6667C29.254 26.6667 30.0002 25.9205 30.0002 25C30.0002 24.0795 29.254 23.3333 28.3335 23.3333C27.413 23.3333 26.6668 24.0795 26.6668 25C26.6668 25.9205 27.413 26.6667 28.3335 26.6667Z" fill="#FED400"/>
<path id="vector_3" d="M13.1961 4.58334H26.8036C29.3391 4.58334 31.4731 6.48107 31.7694 8.99914L32.7205 17.0833H7.2793L8.23038 8.99914C8.52662 6.48107 10.6607 4.58334 13.1961 4.58334Z" fill="#004A74"/>
</g>
</svg>
